<?xml version="1.0" standalone="no"?>
<!DOCTYPE svg PUBLIC "-//W3C//DTD SVG 20010904//EN"
 "http://www.w3.org/TR/2001/REC-SVG-20010904/DTD/svg10.dtd">
<svg version="1.0" xmlns="http://www.w3.org/2000/svg"
 width="500.000000pt" height="500.000000pt" viewBox="0 0 500.000000 500.000000"
 preserveAspectRatio="xMidYMid meet">
<metadata>
Created by potrace 1.11, written by Peter Selinger 2001-2013
</metadata>
<g transform="translate(0.000000,500.000000) scale(0.100000,-0.100000)"
fill="#000000" stroke="none">
<path d="M2417 4944 c-1 -1 -49 -4 -107 -8 -58 -3 -114 -8 -125 -10 -11 -2
-42 -7 -70 -10 -297 -42 -635 -168 -919 -344 -277 -171 -602 -487 -741 -720
-6 -9 -27 -42 -46 -72 -152 -233 -309 -661 -335 -912 -3 -29 -7 -59 -9 -66
-22 -63 -21 -515 1 -624 2 -13 11 -62 19 -111 85 -484 320 -933 675 -1288 307
-307 624 -496 1043 -623 65 -20 132 -38 150 -41 17 -3 66 -12 107 -20 311 -59
661 -50 986 25 96 22 107 26 234 69 160 54 252 95 395 175 152 84 354 227 446
316 15 14 44 41 65 61 297 275 548 698 663 1119 22 80 24 93 46 210 24 131 25
143 32 260 10 172 5 381 -11 470 -3 14 -7 43 -10 65 -50 389 -246 836 -509
1165 -82 101 -284 302 -382 379 -44 34 -87 68 -95 74 -8 7 -40 28 -70 48 -301
198 -625 326 -960 379 -36 6 -75 13 -88 15 -59 10 -376 26 -385 19z"/>
</g>
</svg>
